<svg xmlns="http://www.w3.org/2000/svg" viewBox="0 0 32 32" width="32" height="32">
  <!-- Background (grass block style) -->
  <rect width="32" height="32" fill="#7CB342"/>
  
  <!-- Grass texture lines -->
  <rect x="0" y="0" width="32" height="4" fill="#8BC34A"/>
  <rect x="0" y="8" width="32" height="2" fill="#689F38"/>
  <rect x="0" y="16" width="32" height="2" fill="#689F38"/>
  <rect x="0" y="24" width="32" height="2" fill="#689F38"/>
  
  <!-- Dirt patches -->
  <rect x="4" y="12" width="4" height="4" fill="#8D6E63"/>
  <rect x="12" y="20" width="4" height="4" fill="#8D6E63"/>
  <rect x="20" y="6" width="4" height="4" fill="#8D6E63"/>
  <rect x="24" y="26" width="4" height="4" fill="#8D6E63"/>
  
  <!-- Small grass details -->
  <rect x="2" y="2" width="2" height="6" fill="#4CAF50"/>
  <rect x="8" y="4" width="2" height="4" fill="#4CAF50"/>
  <rect x="14" y="2" width="2" height="6" fill="#4CAF50"/>
  <rect x="22" y="14" width="2" height="4" fill="#4CAF50"/>
  <rect x="28" y="18" width="2" height="6" fill="#4CAF50"/>
  
  <!-- Border for definition -->
  <rect x="0" y="0" width="32" height="32" fill="none" stroke="#2E7D32" stroke-width="1"/>
</svg>